# xmcd
#
# Track frame offsets: 
#        150
#        17445
#        34961
#        53835
#        72530
#        90592
#        112550
#        130842
#        147725
#        165947
#
# Disc length: 2469 seconds
#
# Revision: 12
# Processed by: cddbd v1.5.2PL0 Copyright (c) Steve Scherf et al.
# Submitted via: ExactAudioCopy v0.95a5
#
DISCID=7e09a30a
DTITLE=张国荣 - Salute
DYEAR=1989
DGENRE=Folk
TTITLE0=童年时
TTITLE1=但愿人长久
TTITLE2=纸船
TTITLE3=明星
TTITLE4=从不知
TTITLE5=滴汗
TTITLE6=漫天风雨
TTITLE7=这是爱
TTITLE8=雪中情
TTITLE9=似水流年
EXTD=
EXTT0=
EXTT1=
EXTT2=
EXTT3=
EXTT4=
EXTT5=
EXTT6=
EXTT7=
EXTT8=
EXTT9=
PLAYORDER=
